<?xml version="1.0" encoding="UTF-8"?>
<svg xmlns="http://www.w3.org/2000/svg" version="1.1" viewBox="0 0 24 24">
  <defs>
    <style>
      .cls-1 {
        fill: #656ed3;
      }
    </style>
  </defs>
  <!-- Generator: Adobe Illustrator 28.7.3, SVG Export Plug-In . SVG Version: 1.2.0 Build 164)  -->
  <g>
    <g id="Capa_1">
      <path class="cls-1" d="M12,16c1.3,0,2.3-.4,3.2-1.3s1.3-1.9,1.3-3.2-.4-2.3-1.3-3.2-1.9-1.3-3.2-1.3-2.3.4-3.2,1.3-1.3,1.9-1.3,3.2.4,2.3,1.3,3.2,1.9,1.3,3.2,1.3ZM12,14.2c-.8,0-1.4-.3-1.9-.8s-.8-1.2-.8-1.9.3-1.4.8-1.9,1.2-.8,1.9-.8,1.4.3,1.9.8.8,1.2.8,1.9-.3,1.4-.8,1.9-1.2.8-1.9.8ZM12,19c-2.4,0-4.7-.7-6.7-2-2-1.4-3.5-3.2-4.4-5.5.9-2.3,2.4-4.1,4.4-5.5s4.2-2,6.7-2,4.7.7,6.7,2,3.5,3.2,4.4,5.5c-.9,2.3-2.4,4.1-4.4,5.5-2,1.4-4.2,2-6.7,2ZM12,17c1.9,0,3.6-.5,5.2-1.5s2.8-2.3,3.6-4c-.8-1.7-2-3-3.6-4s-3.3-1.5-5.2-1.5-3.6.5-5.2,1.5-2.8,2.3-3.6,4c.8,1.7,2,3,3.6,4s3.3,1.5,5.2,1.5Z"/>
    </g>
  </g>
</svg>