<!DOCTYPE svg PUBLIC "-//W3C//DTD SVG 1.1//EN" "http://www.w3.org/Graphics/SVG/1.1/DTD/svg11.dtd">
<!-- Uploaded to: SVG Repo, www.svgrepo.com, Transformed by: SVG Repo Mixer Tools -->
<svg fill="#838CF1" version="1.1" id="Capa_1" xmlns="http://www.w3.org/2000/svg" xmlns:xlink="http://www.w3.org/1999/xlink" width="800px" height="800px" viewBox="-4.46 -4.46 53.56 53.56" xml:space="preserve" stroke="#838CF1" transform="matrix(1, 0, 0, 1, 0, 0)rotate(0)">
<g id="SVGRepo_bgCarrier" stroke-width="0"/>
<g id="SVGRepo_tracerCarrier" stroke-linecap="round" stroke-linejoin="round"/>
<g id="SVGRepo_iconCarrier"> <g> <path d="M44.043,10.599l-3.188-9.667c-0.113-0.342-0.357-0.625-0.68-0.787c-0.321-0.162-0.693-0.188-1.037-0.077l-4.014,1.325 c-0.712,0.235-1.099,1.002-0.863,1.714l0.352,1.065L3.876,14.318c-0.711,0.235-1.099,1.002-0.863,1.714l0.212,0.643l-1.373,0.454 c-1.014,0.334-1.563,1.427-1.229,2.441c0.268,0.812,1.023,1.327,1.835,1.327c0.2,0,0.405-0.031,0.605-0.098l1.372-0.453 l0.212,0.643c0.113,0.342,0.357,0.625,0.679,0.787c0.321,0.162,0.694,0.189,1.037,0.077l11.816-3.899L6.364,37.943 c-0.544,0.918-0.239,2.104,0.68,2.646c0.309,0.183,0.647,0.27,0.981,0.27c0.661,0,1.314-0.34,1.675-0.95l10.035-16.963v19.76 c0,1.066,0.86,1.933,1.928,1.933c1.068,0,1.928-0.865,1.928-1.933V22.686L33.767,39.91c0.359,0.61,1.002,0.95,1.662,0.95 c0.334,0,0.673-0.087,0.98-0.27c0.919-0.543,1.223-1.729,0.68-2.646l-12.974-21.95l12.981-4.285l0.353,1.066 c0.113,0.341,0.355,0.625,0.679,0.787c0.321,0.163,0.694,0.189,1.036,0.077l4.016-1.326C43.893,12.079,44.279,11.311,44.043,10.599 z"/> </g> </g>
</svg>