<?xml version="1.0" encoding="UTF-8"?>
<svg xmlns="http://www.w3.org/2000/svg" version="1.1" viewBox="0 0 24 24">
  <defs>
    <style>
      .cls-1 {
        fill: #656ed3;
      }
    </style>
  </defs>
  <!-- Generator: Adobe Illustrator 28.7.3, SVG Export Plug-In . SVG Version: 1.2.0 Build 164)  -->
  <g>
    <g id="Capa_1">
      <path class="cls-1" d="M16.1,13.3l-1.5-1.5c.2-.8,0-1.5-.7-2.2s-1.4-1-2.3-.8l-1.5-1.5c.3-.1.6-.2.9-.3s.6-.1.9-.1c1.3,0,2.3.4,3.2,1.3s1.3,1.9,1.3,3.2,0,.6-.1.9-.2.6-.3.9ZM19.3,16.4l-1.5-1.4c.6-.5,1.2-1,1.7-1.6s.9-1.2,1.3-2c-.8-1.7-2-3-3.6-4s-3.3-1.5-5.2-1.5-1,0-1.4.1-.9.2-1.4.3l-1.6-1.6c.7-.3,1.4-.5,2.1-.6s1.5-.2,2.3-.2c2.5,0,4.8.7,6.7,2.1s3.4,3.2,4.3,5.4c-.4,1-.9,1.9-1.5,2.7s-1.4,1.6-2.2,2.2ZM19.8,22.6l-4.2-4.2c-.6.2-1.2.3-1.8.4s-1.2.1-1.8.1c-2.5,0-4.8-.7-6.7-2.1-2-1.4-3.4-3.2-4.3-5.4.4-.9.8-1.7,1.3-2.5s1.1-1.4,1.8-2l-2.8-2.8,1.4-1.4,18.4,18.4-1.4,1.4ZM5.6,8.4c-.5.4-.9.9-1.3,1.4s-.7,1.1-1,1.7c.8,1.7,2,3,3.6,4,1.6,1,3.3,1.5,5.2,1.5s.7,0,1,0c.3,0,.6,0,1-.1l-.9-1c-.2,0-.4,0-.5.1s-.3,0-.5,0c-1.3,0-2.3-.4-3.2-1.3s-1.3-1.9-1.3-3.2,0-.4,0-.5,0-.3.1-.5l-2.1-2.1Z"/>
    </g>
  </g>
</svg>